# xmcd
#
# Track frame offsets:
#	150
#	17678
#	32329
#	45816
#	58910
#	76729
#	94983
#	111680
#	126684
#	142701
#	160099
#	173513
#	193431
#	211042
#	225194
#	241523
#	257260
#
# Disc length: 3648
#
# Revision: 3
# Processed by: cddbd v1.5.1PL0 Copyright (c) Steve Scherf et al.
# Submitted via: FreeRIP 2.60 
# Normalized: r2:DSETVAR1,TDELIM( - )
#
DISCID=cc0e3e11
DTITLE=Various Artist - Promo Only Country Radio February 2002
DYEAR=2002
DGENRE=Country
TTITLE0=Kenney Chesney - Young
TTITLE1=Mark Chesnutt - She Was
TTITLE2=Jessica Andrews - Karma (Remix)
TTITLE3=Andy Griggs - Tonight I Wanna Be Your Man
TTITLE4=Travis Tritt - Modern Day Bonnie And Clyde
TTITLE5=Lonestar - Not A Day Goes By
TTITLE6=Pat Green - Three Days
TTITLE7=Reba Mcentire - Sweet Music Man
TTITLE8=Brad Martin - Before I Knew Better
TTITLE9=Alabama - The Women He Loves
TTITLE10=Allison Kraus and Union Station - Let Me Touch You For Awhile
TTITLE11=Tracy Lawrence - What A Memory
TTITLE12=Shannon Lawson - Goodbye On A Bad Day
TTITLE13=Jeffrey Steele - I Can Give You Love Like That
TTITLE14=Brian McComas - I Could Never Love You Enough
TTITLE15=Elbert West - (This One's Gonna) Leave A Mark
TTITLE16=John Colbert - Wings Of Love
EXTD=
EXTT0=
EXTT1=
EXTT2=
EXTT3=
EXTT4=
EXTT5=
EXTT6=
EXTT7=
EXTT8=
EXTT9=
EXTT10=
EXTT11=
EXTT12=
EXTT13=
EXTT14=
EXTT15=
EXTT16=
PLAYORDER=
